<svg id="visual" viewBox="0 0 1920 1080" preserveAspectRatio="none"
    xmlns="http://www.w3.org/2000/svg"
    xmlns:xlink="http://www.w3.org/1999/xlink" version="1.1">
    <path d="M0 282L45.7 265.8C91.3 249.7 182.7 217.3 274.2 193.8C365.7 170.3 457.3 155.7 548.8 161C640.3 166.3 731.7 191.7 823 220.5C914.3 249.3 1005.7 281.7 1097 294.3C1188.3 307 1279.7 300 1371.2 280.2C1462.7 260.3 1554.3 227.7 1645.8 224C1737.3 220.3 1828.7 245.7 1874.3 258.3L1920 271L1920 0L1874.3 0C1828.7 0 1737.3 0 1645.8 0C1554.3 0 1462.7 0 1371.2 0C1279.7 0 1188.3 0 1097 0C1005.7 0 914.3 0 823 0C731.7 0 640.3 0 548.8 0C457.3 0 365.7 0 274.2 0C182.7 0 91.3 0 45.7 0L0 0Z" fill="#d00000"></path>
    <path d="M0 347L45.7 350.5C91.3 354 182.7 361 274.2 361C365.7 361 457.3 354 548.8 363C640.3 372 731.7 397 823 407.7C914.3 418.3 1005.7 414.7 1097 405.7C1188.3 396.7 1279.7 382.3 1371.2 360.8C1462.7 339.3 1554.3 310.7 1645.8 319.7C1737.3 328.7 1828.7 375.3 1874.3 398.7L1920 422L1920 269L1874.3 256.3C1828.7 243.7 1737.3 218.3 1645.8 222C1554.3 225.7 1462.7 258.3 1371.2 278.2C1279.7 298 1188.3 305 1097 292.3C1005.7 279.7 914.3 247.3 823 218.5C731.7 189.7 640.3 164.3 548.8 159C457.3 153.7 365.7 168.3 274.2 191.8C182.7 215.3 91.3 247.7 45.7 263.8L0 280Z" fill="#da3b00"></path>
    <path d="M0 660L45.7 667.2C91.3 674.3 182.7 688.7 274.2 681.5C365.7 674.3 457.3 645.7 548.8 645.7C640.3 645.7 731.7 674.3 823 710.3C914.3 746.3 1005.7 789.7 1097 822C1188.3 854.3 1279.7 875.7 1371.2 873.8C1462.7 872 1554.3 847 1645.8 809.3C1737.3 771.7 1828.7 721.3 1874.3 696.2L1920 671L1920 420L1874.3 396.7C1828.7 373.3 1737.3 326.7 1645.8 317.7C1554.3 308.7 1462.7 337.3 1371.2 358.8C1279.7 380.3 1188.3 394.7 1097 403.7C1005.7 412.7 914.3 416.3 823 405.7C731.7 395 640.3 370 548.8 361C457.3 352 365.7 359 274.2 359C182.7 359 91.3 352 45.7 348.5L0 345Z" fill="#e45900"></path>
    <path d="M0 919L45.7 937C91.3 955 182.7 991 274.2 982C365.7 973 457.3 919 548.8 915.3C640.3 911.7 731.7 958.3 823 971C914.3 983.7 1005.7 962.3 1097 960.7C1188.3 959 1279.7 977 1371.2 982.3C1462.7 987.7 1554.3 980.3 1645.8 964C1737.3 947.7 1828.7 922.3 1874.3 909.7L1920 897L1920 669L1874.3 694.2C1828.7 719.3 1737.3 769.7 1645.8 807.3C1554.3 845 1462.7 870 1371.2 871.8C1279.7 873.7 1188.3 852.3 1097 820C1005.7 787.7 914.3 744.3 823 708.3C731.7 672.3 640.3 643.7 548.8 643.7C457.3 643.7 365.7 672.3 274.2 679.5C182.7 686.7 91.3 672.3 45.7 665.2L0 658Z" fill="#ed7300"></path>
    <path d="M0 1081L45.7 1081C91.3 1081 182.7 1081 274.2 1081C365.7 1081 457.3 1081 548.8 1081C640.3 1081 731.7 1081 823 1081C914.3 1081 1005.7 1081 1097 1081C1188.3 1081 1279.7 1081 1371.2 1081C1462.7 1081 1554.3 1081 1645.8 1081C1737.3 1081 1828.7 1081 1874.3 1081L1920 1081L1920 895L1874.3 907.7C1828.7 920.3 1737.3 945.7 1645.8 962C1554.3 978.3 1462.7 985.7 1371.2 980.3C1279.7 975 1188.3 957 1097 958.7C1005.7 960.3 914.3 981.7 823 969C731.7 956.3 640.3 909.7 548.8 913.3C457.3 917 365.7 971 274.2 980C182.7 989 91.3 953 45.7 935L0 917Z" fill="#f48c06"></path>
</svg>

